<svg xmlns="http://www.w3.org/2000/svg" viewBox="0 0 800 260" font-family="system-ui,sans-serif"><line x1="60" x2="780" y1="222.2" y2="222.2" stroke="#898781" stroke-opacity="0.25" stroke-width="1"/><text x="52" y="226.2" text-anchor="end" font-size="11" fill="#898781">$-6,000</text><line x1="60" x2="780" y1="180.9" y2="180.9" stroke="#898781" stroke-opacity="0.25" stroke-width="1"/><text x="52" y="184.9" text-anchor="end" font-size="11" fill="#898781">$-4,500</text><line x1="60" x2="780" y1="139.5" y2="139.5" stroke="#898781" stroke-opacity="0.25" stroke-width="1"/><text x="52" y="143.5" text-anchor="end" font-size="11" fill="#898781">$-3,000</text><line x1="60" x2="780" y1="98.2" y2="98.2" stroke="#898781" stroke-opacity="0.25" stroke-width="1"/><text x="52" y="102.2" text-anchor="end" font-size="11" fill="#898781">$-1,500</text><line x1="60" x2="780" y1="56.8" y2="56.8" stroke="#898781" stroke-opacity="0.25" stroke-width="1"/><text x="52" y="60.8" text-anchor="end" font-size="11" fill="#898781">$0</text><polyline points="60.0,56.8 90.0,30.9 120.0,47.3 150.0,63.0 180.0,81.2 210.0,110.6 240.0,136.6 270.0,165.1 300.0,184.2 330.0,196.4 360.0,210.6 390.0,194.8 420.0,217.1 450.0,151.2 480.0,155.6 510.0,140.2 540.0,163.8 570.0,155.2 600.0,163.4 630.0,166.9 660.0,168.3 690.0,193.9 720.0,156.5 750.0,171.9 780.0,171.3" fill="none" stroke="#2a78d6" stroke-width="2" stroke-linejoin="round"/><circle cx="780.0" cy="171.3" r="4" fill="#2a78d6"/><text x="772.0" y="161.3" text-anchor="end" font-size="12" font-weight="600" fill="#898781">$-4,155</text><text x="60" y="254" font-size="11" fill="#898781">trade 0 → 24</text></svg>